<?xml version="1.0" encoding="UTF-8"?>
<svg xmlns="http://www.w3.org/2000/svg" viewBox="0 0 800 600" width="800" height="600">
  <defs><linearGradient id="g" x1="0" y1="0" x2="1" y2="1">
      <stop offset="0" stop-color="#309f6c"/>
      <stop offset="1" stop-color="#09431a"/>
    </linearGradient></defs>
  <rect width="800" height="600" fill="url(#g)"/>
  <circle cx="24" cy="46" r="1.5" fill="white" opacity="0.18"/><circle cx="75" cy="50" r="2.5" fill="white" opacity="0.18"/><circle cx="145" cy="55" r="2" fill="white" opacity="0.18"/><circle cx="189" cy="49" r="1.5" fill="white" opacity="0.18"/><circle cx="251" cy="51" r="1.5" fill="white" opacity="0.18"/><circle cx="322" cy="45" r="2" fill="white" opacity="0.18"/><circle cx="375" cy="51" r="1.5" fill="white" opacity="0.18"/><circle cx="430" cy="49" r="2" fill="white" opacity="0.18"/><circle cx="475" cy="54" r="2.5" fill="white" opacity="0.18"/><circle cx="541" cy="50" r="2.5" fill="white" opacity="0.18"/><circle cx="601" cy="52" r="1.5" fill="white" opacity="0.18"/><circle cx="659" cy="52" r="2.5" fill="white" opacity="0.18"/><circle cx="705" cy="53" r="1.5" fill="white" opacity="0.18"/><circle cx="774" cy="50" r="3" fill="white" opacity="0.18"/><circle cx="35" cy="150" r="3" fill="white" opacity="0.18"/><circle cx="82" cy="147" r="2" fill="white" opacity="0.18"/><circle cx="148" cy="147" r="2.5" fill="white" opacity="0.18"/><circle cx="201" cy="155" r="3" fill="white" opacity="0.18"/><circle cx="252" cy="156" r="1.5" fill="white" opacity="0.18"/><circle cx="315" cy="146" r="2.5" fill="white" opacity="0.18"/><circle cx="363" cy="150" r="1.5" fill="white" opacity="0.18"/><circle cx="440" cy="145" r="2.5" fill="white" opacity="0.18"/><circle cx="482" cy="148" r="3" fill="white" opacity="0.18"/><circle cx="545" cy="149" r="1.5" fill="white" opacity="0.18"/><circle cx="611" cy="150" r="1.5" fill="white" opacity="0.18"/><circle cx="647" cy="152" r="3" fill="white" opacity="0.18"/><circle cx="709" cy="149" r="2.5" fill="white" opacity="0.18"/><circle cx="760" cy="150" r="2" fill="white" opacity="0.18"/><circle cx="31" cy="250" r="2" fill="white" opacity="0.18"/><circle cx="92" cy="246" r="2" fill="white" opacity="0.18"/><circle cx="140" cy="255" r="3" fill="white" opacity="0.18"/><circle cx="190" cy="249" r="2.5" fill="white" opacity="0.18"/><circle cx="266" cy="254" r="2.5" fill="white" opacity="0.18"/><circle cx="319" cy="256" r="3" fill="white" opacity="0.18"/><circle cx="382" cy="246" r="2" fill="white" opacity="0.18"/><circle cx="420" cy="252" r="1.5" fill="white" opacity="0.18"/><circle cx="485" cy="251" r="2.5" fill="white" opacity="0.18"/><circle cx="538" cy="246" r="2.5" fill="white" opacity="0.18"/><circle cx="603" cy="248" r="2" fill="white" opacity="0.18"/><circle cx="662" cy="250" r="1.5" fill="white" opacity="0.18"/><circle cx="713" cy="254" r="3" fill="white" opacity="0.18"/><circle cx="769" cy="249" r="3" fill="white" opacity="0.18"/><circle cx="32" cy="345" r="1.5" fill="white" opacity="0.18"/><circle cx="97" cy="349" r="1.5" fill="white" opacity="0.18"/><circle cx="139" cy="345" r="1.5" fill="white" opacity="0.18"/><circle cx="202" cy="350" r="2.5" fill="white" opacity="0.18"/><circle cx="260" cy="345" r="2" fill="white" opacity="0.18"/><circle cx="317" cy="346" r="2.5" fill="white" opacity="0.18"/><circle cx="382" cy="351" r="3" fill="white" opacity="0.18"/><circle cx="420" cy="354" r="3" fill="white" opacity="0.18"/><circle cx="485" cy="348" r="2" fill="white" opacity="0.18"/><circle cx="533" cy="348" r="2.5" fill="white" opacity="0.18"/><circle cx="599" cy="352" r="1.5" fill="white" opacity="0.18"/><circle cx="650" cy="355" r="2.5" fill="white" opacity="0.18"/><circle cx="706" cy="351" r="1.5" fill="white" opacity="0.18"/><circle cx="778" cy="348" r="1.5" fill="white" opacity="0.18"/><circle cx="33" cy="447" r="2.5" fill="white" opacity="0.18"/><circle cx="96" cy="448" r="2" fill="white" opacity="0.18"/><circle cx="144" cy="453" r="2.5" fill="white" opacity="0.18"/><circle cx="203" cy="451" r="2" fill="white" opacity="0.18"/><circle cx="264" cy="454" r="2" fill="white" opacity="0.18"/><circle cx="307" cy="450" r="1.5" fill="white" opacity="0.18"/><circle cx="383" cy="453" r="3" fill="white" opacity="0.18"/><circle cx="423" cy="452" r="2.5" fill="white" opacity="0.18"/><circle cx="484" cy="455" r="2.5" fill="white" opacity="0.18"/><circle cx="554" cy="448" r="2" fill="white" opacity="0.18"/><circle cx="590" cy="450" r="2.5" fill="white" opacity="0.18"/><circle cx="650" cy="451" r="1.5" fill="white" opacity="0.18"/><circle cx="714" cy="452" r="1.5" fill="white" opacity="0.18"/><circle cx="779" cy="445" r="3" fill="white" opacity="0.18"/><circle cx="35" cy="553" r="3" fill="white" opacity="0.18"/><circle cx="95" cy="549" r="2.5" fill="white" opacity="0.18"/><circle cx="133" cy="555" r="3" fill="white" opacity="0.18"/><circle cx="199" cy="553" r="1.5" fill="white" opacity="0.18"/><circle cx="263" cy="546" r="2" fill="white" opacity="0.18"/><circle cx="303" cy="551" r="3" fill="white" opacity="0.18"/><circle cx="379" cy="546" r="3" fill="white" opacity="0.18"/><circle cx="432" cy="548" r="2" fill="white" opacity="0.18"/><circle cx="474" cy="554" r="1.5" fill="white" opacity="0.18"/><circle cx="543" cy="555" r="3" fill="white" opacity="0.18"/><circle cx="612" cy="546" r="2" fill="white" opacity="0.18"/><circle cx="646" cy="547" r="2" fill="white" opacity="0.18"/><circle cx="721" cy="548" r="3" fill="white" opacity="0.18"/><circle cx="779" cy="545" r="2.5" fill="white" opacity="0.18"/>
  <g transform="translate(48.0,15.000000000000057) scale(5.699999999999999)" fill="white" opacity="0.16" color="white"><path d="M50,12 L30,42 L40,42 L25,62 L40,62 L20,82 L80,82 L60,62 L75,62 L60,42 L70,42 Z" />
      <rect x="46" y="80" width="8" height="18" /></g>
  <text x="782" y="57.1" font-family="'Segoe UI','Helvetica Neue',Arial,sans-serif" font-size="46" font-weight="700" fill="white" opacity="0.92" text-anchor="end" letter-spacing="3">PFL</text>
</svg>