<?xml version="1.0" encoding="UTF-8"?>
<svg xmlns="http://www.w3.org/2000/svg" viewBox="0 0 800 600" width="800" height="600">
  <defs><linearGradient id="g" x1="0" y1="0" x2="1" y2="0">
      <stop offset="0" stop-color="#367e56"/>
      <stop offset="1" stop-color="#0f3510"/>
    </linearGradient></defs>
  <rect width="800" height="600" fill="url(#g)"/>
  <path d="M0,390.0 Q200.0,318.0 400.0,390.0 T800,390.0 L800,600 L0,600 Z" fill="white" opacity="0.12"/>
  <g transform="translate(48.0,15.000000000000057) scale(5.699999999999999)" fill="white" opacity="0.16" color="white"><path d="M50,12 C42,40 30,52 30,68 C30,80 40,90 50,90 C60,90 70,80 70,68 C70,52 58,40 50,12 Z" />
      <path d="M0,95 Q25,88 50,95 T100,95 L100,100 L0,100 Z" opacity="0.5" /></g>
  <text x="782" y="582" font-family="'Segoe UI','Helvetica Neue',Arial,sans-serif" font-size="46" font-weight="700" fill="white" opacity="0.92" text-anchor="end" letter-spacing="3">TWR</text>
</svg>