<?xml version="1.0" encoding="UTF-8"?>
<svg xmlns="http://www.w3.org/2000/svg" viewBox="0 0 1600 500" width="1600" height="500">
  <defs><linearGradient id="g" x1="0" y1="0" x2="0" y2="1">
      <stop offset="0" stop-color="#58b682"/>
      <stop offset="1" stop-color="#1c4d22"/>
    </linearGradient></defs>
  <rect width="1600" height="500" fill="url(#g)"/>
  <polygon points="-500,500 -477.0,500 23.0,0 0,0" fill="white" opacity="0.07"/><polygon points="-454,500 -431.0,500 69.0,0 46,0" fill="white" opacity="0.07"/><polygon points="-408,500 -385.0,500 115.0,0 92,0" fill="white" opacity="0.07"/><polygon points="-362,500 -339.0,500 161.0,0 138,0" fill="white" opacity="0.07"/><polygon points="-316,500 -293.0,500 207.0,0 184,0" fill="white" opacity="0.07"/><polygon points="-270,500 -247.0,500 253.0,0 230,0" fill="white" opacity="0.07"/><polygon points="-224,500 -201.0,500 299.0,0 276,0" fill="white" opacity="0.07"/><polygon points="-178,500 -155.0,500 345.0,0 322,0" fill="white" opacity="0.07"/><polygon points="-132,500 -109.0,500 391.0,0 368,0" fill="white" opacity="0.07"/><polygon points="-86,500 -63.0,500 437.0,0 414,0" fill="white" opacity="0.07"/><polygon points="-40,500 -17.0,500 483.0,0 460,0" fill="white" opacity="0.07"/><polygon points="6,500 29.0,500 529.0,0 506,0" fill="white" opacity="0.07"/><polygon points="52,500 75.0,500 575.0,0 552,0" fill="white" opacity="0.07"/><polygon points="98,500 121.0,500 621.0,0 598,0" fill="white" opacity="0.07"/><polygon points="144,500 167.0,500 667.0,0 644,0" fill="white" opacity="0.07"/><polygon points="190,500 213.0,500 713.0,0 690,0" fill="white" opacity="0.07"/><polygon points="236,500 259.0,500 759.0,0 736,0" fill="white" opacity="0.07"/><polygon points="282,500 305.0,500 805.0,0 782,0" fill="white" opacity="0.07"/><polygon points="328,500 351.0,500 851.0,0 828,0" fill="white" opacity="0.07"/><polygon points="374,500 397.0,500 897.0,0 874,0" fill="white" opacity="0.07"/><polygon points="420,500 443.0,500 943.0,0 920,0" fill="white" opacity="0.07"/><polygon points="466,500 489.0,500 989.0,0 966,0" fill="white" opacity="0.07"/><polygon points="512,500 535.0,500 1035.0,0 1012,0" fill="white" opacity="0.07"/><polygon points="558,500 581.0,500 1081.0,0 1058,0" fill="white" opacity="0.07"/><polygon points="604,500 627.0,500 1127.0,0 1104,0" fill="white" opacity="0.07"/><polygon points="650,500 673.0,500 1173.0,0 1150,0" fill="white" opacity="0.07"/><polygon points="696,500 719.0,500 1219.0,0 1196,0" fill="white" opacity="0.07"/><polygon points="742,500 765.0,500 1265.0,0 1242,0" fill="white" opacity="0.07"/><polygon points="788,500 811.0,500 1311.0,0 1288,0" fill="white" opacity="0.07"/><polygon points="834,500 857.0,500 1357.0,0 1334,0" fill="white" opacity="0.07"/><polygon points="880,500 903.0,500 1403.0,0 1380,0" fill="white" opacity="0.07"/><polygon points="926,500 949.0,500 1449.0,0 1426,0" fill="white" opacity="0.07"/><polygon points="972,500 995.0,500 1495.0,0 1472,0" fill="white" opacity="0.07"/><polygon points="1018,500 1041.0,500 1541.0,0 1518,0" fill="white" opacity="0.07"/><polygon points="1064,500 1087.0,500 1587.0,0 1564,0" fill="white" opacity="0.07"/><polygon points="1110,500 1133.0,500 1633.0,0 1610,0" fill="white" opacity="0.07"/><polygon points="1156,500 1179.0,500 1679.0,0 1656,0" fill="white" opacity="0.07"/><polygon points="1202,500 1225.0,500 1725.0,0 1702,0" fill="white" opacity="0.07"/><polygon points="1248,500 1271.0,500 1771.0,0 1748,0" fill="white" opacity="0.07"/><polygon points="1294,500 1317.0,500 1817.0,0 1794,0" fill="white" opacity="0.07"/><polygon points="1340,500 1363.0,500 1863.0,0 1840,0" fill="white" opacity="0.07"/><polygon points="1386,500 1409.0,500 1909.0,0 1886,0" fill="white" opacity="0.07"/><polygon points="1432,500 1455.0,500 1955.0,0 1932,0" fill="white" opacity="0.07"/><polygon points="1478,500 1501.0,500 2001.0,0 1978,0" fill="white" opacity="0.07"/><polygon points="1524,500 1547.0,500 2047.0,0 2024,0" fill="white" opacity="0.07"/><polygon points="1570,500 1593.0,500 2093.0,0 2070,0" fill="white" opacity="0.07"/>
  <g transform="translate(1029.0,0.0) scale(4.75)" fill="white" opacity="0.16" color="white"><polygon points="10,100 10,60 22,46 34,60 34,100" />
      <rect x="40" y="32" width="20" height="68" />
      <rect x="66" y="48" width="12" height="52" />
      <rect x="82" y="38" width="14" height="62" /></g>
  <text x="1582" y="482" font-family="'Segoe UI','Helvetica Neue',Arial,sans-serif" font-size="44" font-weight="700" fill="white" opacity="0.92" text-anchor="end" letter-spacing="3">WTB</text>
</svg>