<?xml version="1.0" encoding="UTF-8"?>
<svg xmlns="http://www.w3.org/2000/svg" viewBox="0 0 800 600" width="800" height="600">
  <defs><linearGradient id="g" x1="0" y1="0" x2="0" y2="1">
      <stop offset="0" stop-color="#58b682"/>
      <stop offset="1" stop-color="#1c4d22"/>
    </linearGradient></defs>
  <rect width="800" height="600" fill="url(#g)"/>
  <polygon points="-600,600 -577.0,600 23.0,0 0,0" fill="white" opacity="0.07"/><polygon points="-554,600 -531.0,600 69.0,0 46,0" fill="white" opacity="0.07"/><polygon points="-508,600 -485.0,600 115.0,0 92,0" fill="white" opacity="0.07"/><polygon points="-462,600 -439.0,600 161.0,0 138,0" fill="white" opacity="0.07"/><polygon points="-416,600 -393.0,600 207.0,0 184,0" fill="white" opacity="0.07"/><polygon points="-370,600 -347.0,600 253.0,0 230,0" fill="white" opacity="0.07"/><polygon points="-324,600 -301.0,600 299.0,0 276,0" fill="white" opacity="0.07"/><polygon points="-278,600 -255.0,600 345.0,0 322,0" fill="white" opacity="0.07"/><polygon points="-232,600 -209.0,600 391.0,0 368,0" fill="white" opacity="0.07"/><polygon points="-186,600 -163.0,600 437.0,0 414,0" fill="white" opacity="0.07"/><polygon points="-140,600 -117.0,600 483.0,0 460,0" fill="white" opacity="0.07"/><polygon points="-94,600 -71.0,600 529.0,0 506,0" fill="white" opacity="0.07"/><polygon points="-48,600 -25.0,600 575.0,0 552,0" fill="white" opacity="0.07"/><polygon points="-2,600 21.0,600 621.0,0 598,0" fill="white" opacity="0.07"/><polygon points="44,600 67.0,600 667.0,0 644,0" fill="white" opacity="0.07"/><polygon points="90,600 113.0,600 713.0,0 690,0" fill="white" opacity="0.07"/><polygon points="136,600 159.0,600 759.0,0 736,0" fill="white" opacity="0.07"/><polygon points="182,600 205.0,600 805.0,0 782,0" fill="white" opacity="0.07"/><polygon points="228,600 251.0,600 851.0,0 828,0" fill="white" opacity="0.07"/><polygon points="274,600 297.0,600 897.0,0 874,0" fill="white" opacity="0.07"/><polygon points="320,600 343.0,600 943.0,0 920,0" fill="white" opacity="0.07"/><polygon points="366,600 389.0,600 989.0,0 966,0" fill="white" opacity="0.07"/><polygon points="412,600 435.0,600 1035.0,0 1012,0" fill="white" opacity="0.07"/><polygon points="458,600 481.0,600 1081.0,0 1058,0" fill="white" opacity="0.07"/><polygon points="504,600 527.0,600 1127.0,0 1104,0" fill="white" opacity="0.07"/><polygon points="550,600 573.0,600 1173.0,0 1150,0" fill="white" opacity="0.07"/><polygon points="596,600 619.0,600 1219.0,0 1196,0" fill="white" opacity="0.07"/><polygon points="642,600 665.0,600 1265.0,0 1242,0" fill="white" opacity="0.07"/><polygon points="688,600 711.0,600 1311.0,0 1288,0" fill="white" opacity="0.07"/><polygon points="734,600 757.0,600 1357.0,0 1334,0" fill="white" opacity="0.07"/><polygon points="780,600 803.0,600 1403.0,0 1380,0" fill="white" opacity="0.07"/>
  <g transform="translate(182.0000000000001,1.1368683772161603e-13) scale(5.699999999999999)" fill="white" opacity="0.16" color="white"><polygon points="10,100 10,60 22,46 34,60 34,100" />
      <rect x="40" y="32" width="20" height="68" />
      <rect x="66" y="48" width="12" height="52" />
      <rect x="82" y="38" width="14" height="62" /></g>
  <text x="782" y="582" font-family="'Segoe UI','Helvetica Neue',Arial,sans-serif" font-size="46" font-weight="700" fill="white" opacity="0.92" text-anchor="end" letter-spacing="3">WTB</text>
</svg>