<?xml version="1.0" encoding="UTF-8"?>
<svg xmlns="http://www.w3.org/2000/svg" viewBox="0 0 1600 500" width="1600" height="500">
  <defs><linearGradient id="g" x1="0" y1="0" x2="1" y2="0">
      <stop offset="0" stop-color="#3184ff"/>
      <stop offset="1" stop-color="#00337e"/>
    </linearGradient></defs>
  <rect width="1600" height="500" fill="url(#g)"/>
  <line x1="160.0" y1="0" x2="160.0" y2="500" stroke="white" stroke-width="1" opacity="0.1"/><line x1="320.0" y1="0" x2="320.0" y2="500" stroke="white" stroke-width="1" opacity="0.1"/><line x1="480.0" y1="0" x2="480.0" y2="500" stroke="white" stroke-width="1" opacity="0.1"/><line x1="640.0" y1="0" x2="640.0" y2="500" stroke="white" stroke-width="1" opacity="0.1"/><line x1="800.0" y1="0" x2="800.0" y2="500" stroke="white" stroke-width="1" opacity="0.1"/><line x1="960.0" y1="0" x2="960.0" y2="500" stroke="white" stroke-width="1" opacity="0.1"/><line x1="1120.0" y1="0" x2="1120.0" y2="500" stroke="white" stroke-width="1" opacity="0.1"/><line x1="1280.0" y1="0" x2="1280.0" y2="500" stroke="white" stroke-width="1" opacity="0.1"/><line x1="1440.0" y1="0" x2="1440.0" y2="500" stroke="white" stroke-width="1" opacity="0.1"/><line x1="0" y1="125.0" x2="1600" y2="125.0" stroke="white" stroke-width="1" opacity="0.1"/><line x1="0" y1="250.0" x2="1600" y2="250.0" stroke="white" stroke-width="1" opacity="0.1"/><line x1="0" y1="375.0" x2="1600" y2="375.0" stroke="white" stroke-width="1" opacity="0.1"/>
  <g transform="translate(562.5,0.0) scale(4.75)" fill="white" opacity="0.16" color="white"><rect x="10" y="50" width="14" height="50" />
      <rect x="28" y="35" width="18" height="65" />
      <rect x="50" y="55" width="12" height="45" />
      <rect x="66" y="42" width="20" height="58" />
      <rect x="90" y="60" width="10" height="40" /></g>
  <text x="18" y="55.4" font-family="'Segoe UI','Helvetica Neue',Arial,sans-serif" font-size="44" font-weight="700" fill="white" opacity="0.92" text-anchor="start" letter-spacing="3">CCT</text>
</svg>