<?xml version="1.0" encoding="UTF-8"?>
<svg xmlns="http://www.w3.org/2000/svg" viewBox="0 0 1600 500" width="1600" height="500">
  <defs><linearGradient id="g" x1="0" y1="0" x2="1" y2="0">
      <stop offset="0" stop-color="#367e56"/>
      <stop offset="1" stop-color="#0f3510"/>
    </linearGradient></defs>
  <rect width="1600" height="500" fill="url(#g)"/>
  <path d="M0,325.0 Q400.0,265.0 800.0,325.0 T1600,325.0 L1600,500 L0,500 Z" fill="white" opacity="0.12"/>
  <g transform="translate(96.0,12.5) scale(4.75)" fill="white" opacity="0.16" color="white"><path d="M50,12 C42,40 30,52 30,68 C30,80 40,90 50,90 C60,90 70,80 70,68 C70,52 58,40 50,12 Z" />
      <path d="M0,95 Q25,88 50,95 T100,95 L100,100 L0,100 Z" opacity="0.5" /></g>
  <text x="1582" y="482" font-family="'Segoe UI','Helvetica Neue',Arial,sans-serif" font-size="44" font-weight="700" fill="white" opacity="0.92" text-anchor="end" letter-spacing="3">TWR</text>
</svg>