<?xml version="1.0" encoding="UTF-8"?>
<svg xmlns="http://www.w3.org/2000/svg" viewBox="0 0 1600 500" width="1600" height="500">
  <defs><linearGradient id="g" x1="1" y1="0" x2="0" y2="1">
      <stop offset="0" stop-color="#2a6c48"/>
      <stop offset="1" stop-color="#0b2e20"/>
    </linearGradient></defs>
  <rect width="1600" height="500" fill="url(#g)"/>
  <ellipse cx="1248.0" cy="250.0" rx="65" ry="50" fill="none" stroke="white" stroke-width="1.5" opacity="0.1"/><ellipse cx="1248.0" cy="250.0" rx="130" ry="100" fill="none" stroke="white" stroke-width="1.5" opacity="0.1"/><ellipse cx="1248.0" cy="250.0" rx="195" ry="150" fill="none" stroke="white" stroke-width="1.5" opacity="0.1"/><ellipse cx="1248.0" cy="250.0" rx="260" ry="200" fill="none" stroke="white" stroke-width="1.5" opacity="0.1"/><ellipse cx="1248.0" cy="250.0" rx="325" ry="250" fill="none" stroke="white" stroke-width="1.5" opacity="0.1"/><ellipse cx="1248.0" cy="250.0" rx="390" ry="300" fill="none" stroke="white" stroke-width="1.5" opacity="0.1"/>
  <g transform="translate(96.0,0.0) scale(4.75)" fill="white" opacity="0.16" color="white"><path d="M0,90 L12,72 L25,82 L40,50 L55,75 L70,45 L82,68 L100,52 L100,100 L0,100 Z" />
      <circle cx="78" cy="22" r="6" opacity="0.5" /></g>
  <text x="1582" y="55.4" font-family="'Segoe UI','Helvetica Neue',Arial,sans-serif" font-size="44" font-weight="700" fill="white" opacity="0.92" text-anchor="end" letter-spacing="3">OPC</text>
</svg>