<?xml version="1.0" encoding="UTF-8"?>
<svg xmlns="http://www.w3.org/2000/svg" viewBox="0 0 1600 500" width="1600" height="500">
  <defs><linearGradient id="g" x1="0" y1="0" x2="1" y2="1">
      <stop offset="0" stop-color="#309f6c"/>
      <stop offset="1" stop-color="#09431a"/>
    </linearGradient></defs>
  <rect width="1600" height="500" fill="url(#g)"/>
  <circle cx="53" cy="37" r="1.5" fill="white" opacity="0.18"/><circle cx="161" cy="42" r="2.5" fill="white" opacity="0.18"/><circle cx="288" cy="47" r="2" fill="white" opacity="0.18"/><circle cx="389" cy="41" r="1.5" fill="white" opacity="0.18"/><circle cx="508" cy="42" r="1.5" fill="white" opacity="0.18"/><circle cx="636" cy="37" r="2" fill="white" opacity="0.18"/><circle cx="746" cy="43" r="1.5" fill="white" opacity="0.18"/><circle cx="859" cy="40" r="2" fill="white" opacity="0.18"/><circle cx="961" cy="46" r="2.5" fill="white" opacity="0.18"/><circle cx="1084" cy="42" r="2.5" fill="white" opacity="0.18"/><circle cx="1201" cy="44" r="1.5" fill="white" opacity="0.18"/><circle cx="1316" cy="43" r="2.5" fill="white" opacity="0.18"/><circle cx="1419" cy="44" r="1.5" fill="white" opacity="0.18"/><circle cx="1546" cy="42" r="3" fill="white" opacity="0.18"/><circle cx="64" cy="125" r="3" fill="white" opacity="0.18"/><circle cx="168" cy="122" r="2" fill="white" opacity="0.18"/><circle cx="290" cy="122" r="2.5" fill="white" opacity="0.18"/><circle cx="401" cy="130" r="3" fill="white" opacity="0.18"/><circle cx="509" cy="131" r="1.5" fill="white" opacity="0.18"/><circle cx="629" cy="121" r="2.5" fill="white" opacity="0.18"/><circle cx="735" cy="125" r="1.5" fill="white" opacity="0.18"/><circle cx="868" cy="120" r="2.5" fill="white" opacity="0.18"/><circle cx="968" cy="123" r="3" fill="white" opacity="0.18"/><circle cx="1088" cy="124" r="1.5" fill="white" opacity="0.18"/><circle cx="1211" cy="125" r="1.5" fill="white" opacity="0.18"/><circle cx="1304" cy="127" r="3" fill="white" opacity="0.18"/><circle cx="1423" cy="124" r="2.5" fill="white" opacity="0.18"/><circle cx="1531" cy="125" r="2" fill="white" opacity="0.18"/><circle cx="60" cy="208" r="2" fill="white" opacity="0.18"/><circle cx="178" cy="204" r="2" fill="white" opacity="0.18"/><circle cx="283" cy="213" r="3" fill="white" opacity="0.18"/><circle cx="390" cy="208" r="2.5" fill="white" opacity="0.18"/><circle cx="523" cy="212" r="2.5" fill="white" opacity="0.18"/><circle cx="634" cy="214" r="3" fill="white" opacity="0.18"/><circle cx="754" cy="204" r="2" fill="white" opacity="0.18"/><circle cx="849" cy="210" r="1.5" fill="white" opacity="0.18"/><circle cx="971" cy="209" r="2.5" fill="white" opacity="0.18"/><circle cx="1080" cy="204" r="2.5" fill="white" opacity="0.18"/><circle cx="1203" cy="206" r="2" fill="white" opacity="0.18"/><circle cx="1319" cy="209" r="1.5" fill="white" opacity="0.18"/><circle cx="1428" cy="213" r="3" fill="white" opacity="0.18"/><circle cx="1540" cy="207" r="3" fill="white" opacity="0.18"/><circle cx="60" cy="286" r="1.5" fill="white" opacity="0.18"/><circle cx="183" cy="291" r="1.5" fill="white" opacity="0.18"/><circle cx="282" cy="286" r="1.5" fill="white" opacity="0.18"/><circle cx="402" cy="292" r="2.5" fill="white" opacity="0.18"/><circle cx="517" cy="287" r="2" fill="white" opacity="0.18"/><circle cx="631" cy="287" r="2.5" fill="white" opacity="0.18"/><circle cx="754" cy="293" r="3" fill="white" opacity="0.18"/><circle cx="848" cy="296" r="3" fill="white" opacity="0.18"/><circle cx="971" cy="289" r="2" fill="white" opacity="0.18"/><circle cx="1076" cy="290" r="2.5" fill="white" opacity="0.18"/><circle cx="1199" cy="294" r="1.5" fill="white" opacity="0.18"/><circle cx="1307" cy="297" r="2.5" fill="white" opacity="0.18"/><circle cx="1420" cy="292" r="1.5" fill="white" opacity="0.18"/><circle cx="1549" cy="289" r="1.5" fill="white" opacity="0.18"/><circle cx="62" cy="372" r="2.5" fill="white" opacity="0.18"/><circle cx="181" cy="373" r="2" fill="white" opacity="0.18"/><circle cx="286" cy="378" r="2.5" fill="white" opacity="0.18"/><circle cx="403" cy="376" r="2" fill="white" opacity="0.18"/><circle cx="522" cy="379" r="2" fill="white" opacity="0.18"/><circle cx="621" cy="375" r="1.5" fill="white" opacity="0.18"/><circle cx="755" cy="378" r="3" fill="white" opacity="0.18"/><circle cx="851" cy="377" r="2.5" fill="white" opacity="0.18"/><circle cx="970" cy="380" r="2.5" fill="white" opacity="0.18"/><circle cx="1097" cy="373" r="2" fill="white" opacity="0.18"/><circle cx="1190" cy="375" r="2.5" fill="white" opacity="0.18"/><circle cx="1307" cy="376" r="1.5" fill="white" opacity="0.18"/><circle cx="1428" cy="377" r="1.5" fill="white" opacity="0.18"/><circle cx="1551" cy="370" r="3" fill="white" opacity="0.18"/><circle cx="64" cy="461" r="3" fill="white" opacity="0.18"/><circle cx="181" cy="458" r="2.5" fill="white" opacity="0.18"/><circle cx="276" cy="464" r="3" fill="white" opacity="0.18"/><circle cx="399" cy="461" r="1.5" fill="white" opacity="0.18"/><circle cx="520" cy="454" r="2" fill="white" opacity="0.18"/><circle cx="617" cy="459" r="3" fill="white" opacity="0.18"/><circle cx="750" cy="454" r="3" fill="white" opacity="0.18"/><circle cx="861" cy="457" r="2" fill="white" opacity="0.18"/><circle cx="960" cy="462" r="1.5" fill="white" opacity="0.18"/><circle cx="1086" cy="464" r="3" fill="white" opacity="0.18"/><circle cx="1212" cy="455" r="2" fill="white" opacity="0.18"/><circle cx="1303" cy="455" r="2" fill="white" opacity="0.18"/><circle cx="1435" cy="456" r="3" fill="white" opacity="0.18"/><circle cx="1551" cy="453" r="2.5" fill="white" opacity="0.18"/>
  <g transform="translate(96.0,12.5) scale(4.75)" fill="white" opacity="0.16" color="white"><path d="M50,12 L30,42 L40,42 L25,62 L40,62 L20,82 L80,82 L60,62 L75,62 L60,42 L70,42 Z" />
      <rect x="46" y="80" width="8" height="18" /></g>
  <text x="1582" y="55.4" font-family="'Segoe UI','Helvetica Neue',Arial,sans-serif" font-size="44" font-weight="700" fill="white" opacity="0.92" text-anchor="end" letter-spacing="3">PFL</text>
</svg>